<?xml version="1.0" standalone="no"?>
<!DOCTYPE svg PUBLIC "-//W3C//DTD SVG 20010904//EN"
 "http://www.w3.org/TR/2001/REC-SVG-20010904/DTD/svg10.dtd">
<svg version="1.0" xmlns="http://www.w3.org/2000/svg"
 width="700.000000pt" height="700.000000pt" viewBox="0 0 700.000000 700.000000"
 preserveAspectRatio="xMidYMid meet">
<metadata>
Created by potrace 1.14, written by Peter Selinger 2001-2017
</metadata>
<g transform="translate(0.000000,700.000000) scale(0.100000,-0.100000)"
fill="#000000" stroke="none">
<path d="M481 6980 c-6 -4 -8 -2772 -2 -2817 0 -6 49 -49 109 -94 59 -46 136
-106 172 -133 713 -552 1256 -964 1261 -958 3 4 120 156 259 337 790 1028
1459 1897 1497 1945 40 51 127 164 697 905 110 143 221 287 246 320 25 33 49
65 53 72 19 31 -534 250 -753 298 -216 47 -312 66 -344 70 -21 2 -46 7 -55 9
-9 3 -44 8 -78 11 -34 3 -71 8 -82 10 -11 2 -56 6 -98 9 -43 3 -114 9 -158 12
-96 7 -2714 11 -2724 4z"/>
<path d="M5317 6148 c-18 -24 -96 -124 -172 -223 -77 -99 -161 -209 -188 -243
-27 -35 -138 -179 -246 -320 -108 -142 -237 -309 -286 -372 -49 -63 -118 -153
-154 -200 -36 -47 -83 -107 -104 -135 -21 -27 -49 -63 -62 -80 -12 -16 -156
-203 -319 -415 -163 -212 -334 -434 -381 -495 -47 -60 -225 -292 -397 -515
-171 -223 -341 -443 -377 -490 -36 -47 -127 -166 -204 -265 -76 -99 -143 -187
-150 -195 -7 -8 -41 -52 -75 -98 l-63 -82 -37 27 c-20 16 -89 69 -153 118 -64
50 -148 114 -185 142 -76 58 -262 201 -309 238 -16 13 -70 55 -120 93 -49 38
-222 170 -383 294 -160 124 -304 234 -318 244 -14 11 -31 24 -38 29 -24 23
-109 85 -115 85 -4 0 -7 -301 -6 -670 0 -656 0 -670 20 -689 11 -10 200 -157
420 -326 220 -169 414 -318 430 -331 17 -12 143 -110 282 -216 298 -230 248
-191 562 -433 139 -108 255 -194 256 -193 2 3 380 496 492 643 130 169 394
511 406 525 6 9 32 42 57 75 24 33 49 65 55 72 5 6 63 80 127 165 65 84 236
307 381 495 144 188 274 356 287 374 14 17 136 176 273 353 136 176 307 399
380 494 72 95 168 219 212 276 44 57 134 174 200 261 66 86 127 165 135 175 8
10 39 49 67 87 29 37 110 142 180 233 70 91 163 212 207 270 44 58 83 107 86
110 3 3 36 45 73 95 l66 89 -41 76 c-140 256 -315 488 -523 695 -100 100 -182
176 -205 190 -5 3 -24 -14 -43 -37z"/>
<path d="M6272 4297 c-72 -95 -191 -248 -263 -342 -72 -93 -226 -294 -342
-445 -116 -151 -215 -279 -220 -285 -10 -12 -223 -289 -254 -331 -12 -16 -66
-85 -119 -154 -53 -69 -105 -136 -115 -150 -82 -107 -352 -458 -362 -470 -24
-30 -472 -612 -492 -639 -11 -15 -32 -43 -47 -62 -15 -19 -136 -176 -269 -349
-133 -173 -272 -353 -308 -400 -36 -47 -112 -146 -168 -220 -57 -74 -109 -142
-116 -150 -47 -57 -207 -270 -207 -274 0 -7 340 8 420 19 19 2 87 11 150 19
63 9 126 18 140 21 14 3 61 12 105 20 116 21 132 24 157 34 13 5 26 9 31 9 30
2 244 62 292 82 11 4 49 18 85 31 187 64 426 178 604 286 664 403 1132 1005
1370 1763 40 127 83 292 100 385 8 42 27 155 31 185 6 44 17 124 20 148 19
121 27 659 12 817 -11 118 -16 168 -24 215 -3 25 -7 52 -8 60 -1 8 -5 35 -10
60 -4 25 -9 54 -11 65 -3 23 -45 219 -48 222 -1 1 -61 -75 -134 -170z"/>
<path d="M479 1073 c-1 -4 -3 -243 -3 -530 l-2 -523 694 0 694 0 -113 88 c-63
48 -126 96 -140 107 -136 103 -235 180 -239 185 -3 3 -21 17 -40 30 -19 14
-44 32 -55 42 -11 9 -114 89 -230 178 -116 89 -223 172 -240 185 -89 69 -302
232 -313 239 -6 4 -13 4 -13 -1z"/>
</g>
</svg>
