<?xml version="1.0" encoding="UTF-8" standalone="no"?><!DOCTYPE svg PUBLIC "-//W3C//DTD SVG 1.1//EN" "http://www.w3.org/Graphics/SVG/1.1/DTD/svg11.dtd"><svg width="100%" height="100%" viewBox="0 0 516 516" version="1.1" xmlns="http://www.w3.org/2000/svg" xmlns:xlink="http://www.w3.org/1999/xlink" xml:space="preserve" xmlns:serif="http://www.serif.com/" style="fill-rule:evenodd;clip-rule:evenodd;stroke-linejoin:round;stroke-miterlimit:2;"><g><path d="M219.859,514.383c157.928,-1.535 260.801,-104.576 260.801,-256.57c-0,-25.254 -2.923,-49.117 -8.392,-71.44l-252.409,328.01Z" style="fill:#036;fill-rule:nonzero;"/><path d="M148.471,297.062l204.085,-265.103c-38.506,-19.888 -84.447,-30.79 -136.25,-30.79l-181.34,-0l-0,208.512l113.505,87.381Z" style="fill:#036;fill-rule:nonzero;"/><path d="M34.965,435.742l0,78.714l102.251,0l-102.251,-78.714Z" style="fill:#036;fill-rule:nonzero;"/><path d="M451.826,131.022l-271.852,353.28l-145.009,-111.633l0,-99.913l122.619,94.42l236.893,-307.708c23.711,19.645 43.091,43.726 57.349,71.554" style="fill:#4caf50;fill-rule:nonzero;"/></g></svg>