<?xml version="1.0" encoding="UTF-8" standalone="no"?><!DOCTYPE svg PUBLIC "-//W3C//DTD SVG 1.1//EN" "http://www.w3.org/Graphics/SVG/1.1/DTD/svg11.dtd"><svg width="100%" height="100%" viewBox="0 0 5053 653" version="1.1" xmlns="http://www.w3.org/2000/svg" xmlns:xlink="http://www.w3.org/1999/xlink" xml:space="preserve" xmlns:serif="http://www.serif.com/" style="fill-rule:evenodd;clip-rule:evenodd;stroke-linejoin:round;stroke-miterlimit:2;"><path d="M234.888,651.985c200.631,-1.95 331.32,-132.853 331.32,-325.946c-0,-32.083 -3.713,-62.398 -10.661,-90.756l-320.659,416.702Z" style="fill:#4d7395;fill-rule:nonzero;"/><path d="M144.197,375.902l259.268,-336.787c-48.917,-25.265 -107.281,-39.115 -173.091,-39.115l-230.374,-0l0,264.892l144.197,111.01Z" style="fill:#4d7395;fill-rule:nonzero;"/><path d="M0,552.079l0,99.998l129.898,0l-129.898,-99.998Z" style="fill:#4d7395;fill-rule:nonzero;"/><path d="M1027.97,325.999c-0,19.638 -2.509,38.503 -7.525,56.594c-5.07,18.144 -12.247,35.087 -21.533,50.83c-9.339,15.743 -20.439,30.098 -33.3,43.066c-12.861,12.968 -27.216,24.094 -43.066,33.38c-15.849,9.339 -32.819,16.517 -50.91,21.533c-18.144,5.07 -37.009,7.605 -56.594,7.605l-128.317,-0l-0,-425.936l128.317,-0c19.585,-0 38.45,2.508 56.594,7.524c18.091,5.07 35.061,12.248 50.91,21.533c15.85,9.339 30.205,20.492 43.066,33.46c12.861,12.968 23.961,27.323 33.3,43.066c9.286,15.743 16.463,32.66 21.533,50.751c5.016,18.144 7.525,37.009 7.525,56.594Zm-85.252,-0c0,-17.611 -3.308,-34.128 -9.926,-49.55c-6.617,-15.476 -15.716,-29.004 -27.296,-40.585c-11.58,-11.58 -25.162,-20.732 -40.744,-27.456c-15.53,-6.724 -32.1,-10.086 -49.71,-10.086l-42.506,-0l0,255.433l42.506,0c17.61,0 34.18,-3.308 49.71,-9.926c15.582,-6.67 29.164,-15.796 40.744,-27.376c11.58,-11.58 20.679,-25.135 27.296,-40.664c6.618,-15.53 9.926,-32.126 9.926,-49.79Zm433.941,-127.677l-85.251,-0l-0,170.502l85.251,0c11.687,0 22.654,-2.241 32.9,-6.724c10.299,-4.429 19.318,-10.513 27.056,-18.251c7.738,-7.738 13.822,-16.81 18.251,-27.216c4.483,-10.353 6.724,-21.373 6.724,-33.06c0,-11.687 -2.241,-22.734 -6.724,-33.14c-4.429,-10.406 -10.513,-19.478 -18.251,-27.216c-7.738,-7.685 -16.757,-13.768 -27.056,-18.251c-10.246,-4.429 -21.213,-6.644 -32.9,-6.644Zm-85.251,255.433l-0,85.252l-85.251,-0l-0,-425.936l170.502,-0c15.636,-0 30.685,2.028 45.147,6.083c14.462,4.056 27.964,9.793 40.504,17.211c12.595,7.418 24.095,16.33 34.501,26.736c10.353,10.406 19.265,21.933 26.736,34.581c7.418,12.701 13.155,26.282 17.211,40.744c4.055,14.409 6.083,29.458 6.083,45.147c0,14.622 -1.841,28.871 -5.523,42.746c-3.629,13.875 -8.859,27.056 -15.689,39.544c-6.831,12.434 -15.21,23.907 -25.136,34.42c-9.926,10.513 -21.026,19.612 -33.3,27.297l47.229,111.427l-90.535,-0l-37.142,-85.812l-95.337,0.56Zm518.231,-340.684l0,425.936l-85.251,-0l-0,-425.936l85.251,-0Zm498.94,340.684l-0,85.252l-298.259,-0l-0,-425.936l85.251,-0l-0,340.684l213.008,0Zm464.119,0l-0,85.252l-298.26,-0l0,-425.936l85.252,-0l-0,340.684l213.008,0Zm799.119,-127.756c0,19.638 -2.508,38.503 -7.524,56.594c-5.07,18.144 -12.247,35.087 -21.533,50.83c-9.339,15.743 -20.439,30.098 -33.3,43.066c-12.861,12.968 -27.216,24.094 -43.066,33.38c-15.849,9.339 -32.82,16.517 -50.91,21.533c-18.145,5.07 -37.009,7.605 -56.594,7.605l-128.317,-0l-0,-425.936l128.317,-0c19.585,-0 38.449,2.508 56.594,7.524c18.09,5.07 35.061,12.248 50.91,21.533c15.85,9.339 30.205,20.492 43.066,33.46c12.861,12.968 23.961,27.323 33.3,43.066c9.286,15.743 16.463,32.66 21.533,50.751c5.016,18.144 7.524,37.009 7.524,56.594Zm-85.251,-0c0,-17.611 -3.308,-34.128 -9.926,-49.55c-6.617,-15.476 -15.716,-29.004 -27.296,-40.585c-11.58,-11.58 -25.162,-20.732 -40.745,-27.456c-15.529,-6.724 -32.099,-10.086 -49.709,-10.086l-42.506,-0l0,255.433l42.506,0c17.61,0 34.18,-3.308 49.709,-9.926c15.583,-6.67 29.165,-15.796 40.745,-27.376c11.58,-11.58 20.679,-25.135 27.296,-40.664c6.618,-15.53 9.926,-32.126 9.926,-49.79Zm555.374,127.756l-0,85.252l-292.016,-0l0,-425.936l292.016,-0l-0,85.251l-206.684,-0l-0,85.251l139.844,0l-0,85.251l-139.844,0l-0,84.931l206.684,0Zm151.691,-213.008c-0,-17.61 3.362,-34.153 10.086,-49.629c6.724,-15.423 15.903,-28.924 27.537,-40.505c11.58,-11.58 25.081,-20.732 40.504,-27.456c15.476,-6.724 32.019,-10.086 49.63,-10.086l195.477,-0l0,85.251l-195.477,-0c-5.924,-0 -11.474,1.067 -16.65,3.202c-5.123,2.188 -9.633,5.23 -13.528,9.125c-3.843,3.843 -6.858,8.325 -9.046,13.448c-2.188,5.177 -3.282,10.727 -3.282,16.65c0,5.977 1.094,11.581 3.282,16.811c2.188,5.229 5.203,9.792 9.046,13.688c3.895,3.842 8.405,6.857 13.528,9.045c5.176,2.188 10.726,3.282 16.65,3.282l85.251,0c17.61,0 34.18,3.309 49.71,9.926c15.582,6.617 29.164,15.716 40.744,27.296c11.58,11.581 20.679,25.162 27.297,40.745c6.67,15.529 10.006,32.099 10.006,49.71c-0,17.664 -3.336,34.207 -10.006,49.63c-6.618,15.422 -15.717,28.95 -27.297,40.584c-11.58,11.58 -25.162,20.732 -40.744,27.456c-15.53,6.725 -32.1,10.087 -49.71,10.087l-189.234,-0l0,-85.252l189.234,0c5.923,0 11.473,-1.094 16.65,-3.282c5.123,-2.188 9.632,-5.203 13.528,-9.045c3.842,-3.842 6.857,-8.352 9.045,-13.528c2.188,-5.123 3.282,-10.673 3.282,-16.65c0,-5.924 -1.094,-11.474 -3.282,-16.65c-2.188,-5.123 -5.203,-9.606 -9.045,-13.448c-3.896,-3.896 -8.405,-6.938 -13.528,-9.126c-5.177,-2.134 -10.727,-3.202 -16.65,-3.202l-85.251,0c-17.611,0 -34.154,-3.388 -49.63,-10.166c-15.423,-6.724 -28.924,-15.876 -40.504,-27.456c-11.634,-11.581 -20.813,-25.135 -27.537,-40.665c-6.724,-15.582 -10.086,-32.179 -10.086,-49.79Zm603.482,213.008l0,85.252l-85.251,-0l0,-425.936l85.251,-0l0,212.928l158.656,-212.928l96.858,-0l-134.561,179.708l134.561,246.228l-96.858,-0l-93.577,-172.264l-65.079,87.012Z" style="fill:#4d7395;fill-rule:nonzero;"/></svg>